<?xml version="1.0" encoding="UTF-8" standalone="no"?>
<svg
   xmlns:dc="http://purl.org/dc/elements/1.1/"
   xmlns:cc="http://creativecommons.org/ns#"
   xmlns:rdf="http://www.w3.org/1999/02/22-rdf-syntax-ns#"
   xmlns:svg="http://www.w3.org/2000/svg"
   xmlns="http://www.w3.org/2000/svg"
   xmlns:sodipodi="http://sodipodi.sourceforge.net/DTD/sodipodi-0.dtd"
   xmlns:inkscape="http://www.inkscape.org/namespaces/inkscape"
   viewBox="0 0 369.375 351.5625"
   height="351.5625"
   width="369.375"
   version="1.1"
   id="svg3390"
   inkscape:version="0.91 r13725"
   sodipodi:docname="logo_.svg">
  <sodipodi:namedview
     pagecolor="#ffffff"
     bordercolor="#666666"
     borderopacity="1"
     objecttolerance="10"
     gridtolerance="10"
     guidetolerance="10"
     inkscape:pageopacity="0"
     inkscape:pageshadow="2"
     inkscape:window-width="1920"
     inkscape:window-height="986"
     id="namedview3384"
     showgrid="false"
     inkscape:zoom="1.6030268"
     inkscape:cx="188.07378"
     inkscape:cy="170.03602"
     inkscape:window-x="0"
     inkscape:window-y="24"
     inkscape:window-maximized="1"
     inkscape:current-layer="svg3390" />
  <metadata
     id="metadata3396">
    <rdf:RDF>
      <cc:Work
         rdf:about="">
        <dc:format>image/svg+xml</dc:format>
        <dc:type
           rdf:resource="http://purl.org/dc/dcmitype/StillImage" />
        <dc:title></dc:title>
      </cc:Work>
    </rdf:RDF>
  </metadata>
  <defs
     id="defs3394" />
  <path
     id="path3400"
     d="M 171.5625,349.0601 C 142.3719,346.9855 123.74419,342.15772 99.836428,330.47071 81.566357,321.5396 68.199206,312.02021 53.824917,297.7037 31.161823,275.1317 16.741565,250.96369 8.0585212,221.00032 3.2463482,204.39452 2.3867458,197.13273 2.4283523,173.4375 2.4721519,148.49322 3.4268846,142.24252 10.360659,121.5042 17.238282,100.93383 26.741336,83.304131 39.445994,67.546227 48.4099,56.428072 65.676144,39.512292 75,32.713887 91.852966,20.425699 112.14615,10.528689 129.42206,6.1721819 c 13.16564,-3.320008 15.15286,-2.9814306 5.25043,0.8945516 -10.54738,4.1284255 -22.19771,9.8152795 -28.73082,14.0243295 -2.80345,1.806165 -5.49814,3.283937 -5.988176,3.283937 -0.49005,0 -0.674719,0.216276 -0.410382,0.480612 0.453882,0.453885 2.859408,-0.196645 16.206218,-4.382685 8.24713,-2.586598 36.19251,-8.119219 46.43817,-9.193818 11.31962,-1.187239 38.63542,-1.18646 47.8125,0.0014 7.63481,0.988203 22.28029,4.564922 31.33857,7.65351 17.8909,6.100229 44.47713,22.928258 59.44597,37.62695 26.84329,26.358835 38.32807,46.512934 44.30367,77.746394 2.75596,14.40499 2.1853,30.33621 -1.78786,49.91142 -1.56983,7.73438 -3.12882,16.91016 -3.46442,20.39063 l -0.61017,6.32812 -5.55038,0 c -5.83515,0 -6.35431,-0.33342 -4.26431,-2.73868 4.68248,-5.38878 12.27416,-23.12496 13.80959,-32.26281 1.83956,-10.94776 -1.01631,-40.29014 -4.78266,-49.13913 -0.84957,-1.99605 -1.42522,-2.10938 -10.71487,-2.10938 l -9.81706,0 -0.28116,-5.39062 -0.28116,-5.39063 -4.04016,-0.291 c -2.60745,-0.18782 -5.43329,0.36938 -7.96875,1.57126 -2.93482,1.3912 -6.1815,1.90878 -12.83484,2.04614 -11.12708,0.22972 -12.1875,0.15296 -12.1875,-0.88214 0,-0.46035 5.0625,-1.36658 11.25,-2.01386 11.04866,-1.15581 11.25,-1.21866 11.25,-3.51181 0,-2.83345 -9.88906,-23.552783 -11.506,-24.107128 -0.63264,-0.21689 -9.08248,-0.51632 -18.77743,-0.665402 -17.25222,-0.265292 -17.61515,-0.231172 -17.0611,1.603942 1.60643,5.320831 4.29943,19.565728 4.82964,25.546878 l 0.60252,6.79687 3.49764,0 c 1.96531,0 4.00895,0.61609 4.66473,1.40625 0.6419,0.77344 1.74824,1.40625 2.45854,1.40625 0.7103,0 1.29146,0.42188 1.29146,0.9375 0,0.51655 -2.42051,0.93658 -5.39063,0.93546 l -5.39062,-0.002 0.29349,9.23091 0.29351,9.23091 5.91954,0.88466 5.91954,0.88465 1.07182,-4.64335 c 1.3741,-5.95295 4.34951,-10.75158 7.09359,-11.4403 1.26024,-0.3163 4.19684,0.33725 7.07095,1.57365 3.6914,1.58801 5.22829,2.86308 6.17131,5.12003 0.7864,1.88214 2.14418,3.22839 3.63287,3.60203 1.87945,0.47172 2.37713,1.18171 2.37713,3.39126 0,2.33657 0.37443,2.79464 2.28435,2.79464 1.87913,0 2.33647,-0.52769 2.57813,-2.97468 0.43044,-4.3585 2.45576,-4.45236 2.81184,-0.1303 0.16193,1.96555 0.71631,3.46947 1.23193,3.34205 0.55131,-0.13625 1.04518,-5.48225 1.19889,-12.97776 0.2055,-10.02012 0.005,-12.66161 -0.9375,-12.35113 -0.65939,0.21721 -1.31266,1.41658 -1.45172,2.66526 -0.69212,6.21479 -1.4133,8.62395 -3.08071,10.29135 -2.51899,2.51899 -3.69921,2.32184 -9.34363,-1.56084 -10.60724,-7.2965 -16.77171,-8.69848 -19.13036,-4.35082 l -1.39864,2.57812 -0.0375,-2.39062 c -0.0206,-1.31485 0.46168,-2.88985 1.07183,-3.5 1.28256,-1.28256 1.42646,-1.14064 -3.45312,-3.40571 -5.04141,-2.3402 -2.6678,-2.9457 4.49613,-1.14696 3.19901,0.80322 7.31537,1.69212 9.1475,1.97534 2.14353,0.33135 5.30429,2.18331 8.86568,5.19457 3.04399,2.5738 6.01242,4.67963 6.5965,4.67963 1.13913,0 3.23794,-3.93626 3.23794,-6.07266 0,-0.71331 -0.94491,-1.43175 -2.0998,-1.59651 -1.15489,-0.16477 -2.24229,-1.04711 -2.41645,-1.96076 -0.35426,-1.85847 5.68597,-5.0112 10.61,-5.53795 l 2.8125,-0.30087 0.25853,14.83569 c 0.19515,11.19837 0.53993,14.74046 1.40625,14.44724 0.79194,-0.26804 1.14772,-3.01409 1.14772,-8.85832 0,-6.39143 0.28757,-8.35917 1.17187,-8.0188 0.77919,0.2999 1.17188,2.59798 1.17188,6.85791 0,3.52378 0.42187,6.66761 0.9375,6.98628 0.51562,0.31868 0.95894,0.44904 0.98514,0.28971 0.0263,-0.15934 0.28315,-2.18815 0.571,-4.50846 1.0333,-8.32926 2.44227,-6.08498 2.9585,4.71247 0.22121,4.62689 0.75793,8.41253 1.19271,8.41253 0.93176,0 1.00576,49.48502 0.0817,54.58659 l -0.63271,3.49285 -55.58548,0.13315 c -50.61728,0.12125 -55.73935,-0.007 -57.30717,-1.42497 -1.36244,-1.23298 -3.26176,-1.50055 -9.10203,-1.28225 l -7.3804,0.27567 -0.28828,3.98437 -0.28828,3.98438 -4.16485,0 c -4.15327,0 -4.16484,-0.009 -4.16484,-3.35937 0,-2.27061 -0.37981,-3.23292 -1.17188,-2.9692 -1.46441,0.4876 -1.98147,2.9679 -1.23703,5.93397 0.51399,2.0479 1.06036,2.2696 5.59323,2.2696 5.53627,0 6.79872,-0.89422 7.2796,-5.15625 0.30729,-2.72348 0.48795,-2.8214 5.70795,-3.09366 5.24483,-0.27356 5.39063,-0.21561 5.39063,2.14236 0,3.66442 -2.62453,6.92177 -6.43161,7.98236 -1.87667,0.52282 -11.21683,1.79058 -20.75589,2.81725 -9.53906,1.02666 -22.82813,2.50345 -29.53125,3.28174 -17.77816,2.06419 -44.78881,4.90482 -53.518012,5.62832 -11.012813,0.91277 -12.02036,2.30366 -1.681322,2.32103 10.358314,0.0174 30.226974,-1.93767 86.136834,-8.47576 4.64062,-0.54268 12.65625,-1.24235 17.8125,-1.55483 9.1275,-0.55314 9.451,-0.65079 12.25406,-3.6991 l 2.87907,-3.13096 62.54099,0 c 50.36483,0 62.63178,0.23664 63.0074,1.21549 0.74783,1.94879 -9.99858,24.6797 -22.7242,48.0665 l -11.76737,21.62576 -3.40747,-1.67537 c -1.87411,-0.92145 -6.45545,-2.19412 -10.18075,-2.82815 -12.09145,-2.05792 -23.70598,1.07653 -46.76281,12.62005 -10.8946,5.45444 -13.45732,6.56982 -30.53894,13.29147 -17.49006,6.88236 -19.81643,7.4352 -30.76873,7.31175 -10.19897,-0.11496 -29.87568,-2.1888 -37.96247,-4.00109 -2.55069,-0.57163 -9.72561,-1.39989 -15.94425,-1.84059 -6.21864,-0.4407 -13.73094,-1.50604 -16.69401,-2.36742 -5.38376,-1.56511 -24.08677,-10.31211 -24.08677,-11.26488 0,-0.27727 1.582031,0.29036 3.515625,1.26141 5.472015,2.74803 11.832015,4.5403 25.546875,7.1992 6.96094,1.34952 16.91211,3.47407 22.11371,4.7212 11.2878,2.70639 34.23179,4.75896 42.03917,3.76084 l 5.55913,-0.7107 -15.88483,-7.70971 c -26.18939,-12.71103 -41.12446,-22.30903 -55.32539,-35.5548 l -7.59197,-7.08131 -6.00178,0.86757 c -16.235618,2.3469 -31.435313,0.13251 -42.829992,-6.23975 -11.021445,-6.16355 -17.289879,-13.28957 -20.765319,-23.60626 -2.680564,-7.95714 -2.495583,-8.25429 2.046646,-3.28772 6.716156,7.34359 22.100914,18.87723 31.10366,23.31778 8.863356,4.3718 16.18384,5.94181 27.998485,6.00478 l 5.43027,0.029 -7.68058,-9.14063 C 95.138456,242.4566 92.577165,240.13045 89.371209,238.91318 83.582149,236.71514 74.178412,231.77897 70.3125,228.90896 60.269204,221.45295 56.103046,214.18151 51.515347,196.1012 c -2.427068,-9.56518 -3.047724,-14.24709 -3.604101,-27.1875 -0.439327,-10.21802 -0.95481,-14.98303 -1.488294,-13.75745 -0.448894,1.03125 -1.756647,3.14062 -2.906116,4.6875 -3.506513,4.71882 -10.456458,20.15909 -12.93394,28.73455 -3.621404,12.53499 -4.600009,21.80254 -3.428096,32.46465 2.66952,24.28743 13.499426,44.00804 36.946212,67.27687 11.982031,11.89109 23.96339,20.30154 40.607478,28.5049 21.98565,10.83605 38.92026,15.80552 62.50102,18.34098 32.91318,3.53891 54.68644,-0.0114 97.12883,-15.83787 4.87828,-1.81907 9.0039,-3.17308 9.16808,-3.00892 0.16416,0.16417 -1.71778,1.61712 -4.18209,3.22876 -2.46432,1.61165 -3.94814,2.93524 -3.29738,2.94131 0.65077,0.006 6.13514,-1.28433 12.1875,-2.86754 13.63457,-3.56658 23.95983,-4.84602 32.80117,-4.06447 7.16428,0.6333 9.3975,2.25553 3.10505,2.25553 -7.88606,0 -17.74912,2.97674 -42.71442,12.89149 -18.61479,7.39271 -26.24663,9.98598 -37.5,12.74233 -21.51428,5.26962 -41.66077,7.08372 -62.34375,5.61378 z m 93.96158,-97.68148 c 2.64101,-2.51618 3.04601,-6.87104 0.88711,-9.53865 -1.70313,-2.10446 -2.64434,-2.3368 -10.63816,-2.62608 -7.87622,-0.28503 -8.94677,-0.12172 -10.5075,1.60285 -1.14959,1.27028 -1.54792,2.67657 -1.17689,4.1549 0.76785,3.05934 4.95164,7.05451 8.46961,8.08775 3.8957,1.14419 10.96222,0.22815 12.96583,-1.68077 z m 36.31144,-1.85846 c 6.70034,-6.37388 4.58274,-10.45975 -5.41811,-10.45415 -10.87905,0.006 -14.7336,4.05241 -10.49019,11.01211 1.7316,2.84003 2.20603,3.04688 6.98827,3.04688 4.66921,0 5.47132,-0.32416 8.92003,-3.60484 z m -24.12296,0.0892 c 4.75127,-5.41073 0.61716,-13.11767 -4.36434,-8.13616 -1.88745,1.88745 -1.87291,4.54526 0.0409,7.46602 1.79921,2.74595 2.41665,2.84165 4.32349,0.67014 z M 259.6875,225.9375 c 0,-0.53572 -2.8125,-0.9375 -6.5625,-0.9375 -3.75,0 -6.5625,0.40178 -6.5625,0.9375 0,0.53572 2.8125,0.9375 6.5625,0.9375 3.75,0 6.5625,-0.40178 6.5625,-0.9375 z m 45,0 c 0,-0.55921 -3.59375,-0.9375 -8.90625,-0.9375 -5.3125,0 -8.90625,0.37829 -8.90625,0.9375 0,0.55921 3.59375,0.9375 8.90625,0.9375 5.3125,0 8.90625,-0.37829 8.90625,-0.9375 z m -204.0864,-5.68985 c 0.26035,-0.99558 0.33642,-1.81015 0.16906,-1.81015 -0.16737,0 -0.917185,-0.23518 -1.666257,-0.52263 -1.540359,-0.59109 -2.747184,1.70801 -1.965647,3.74469 0.680194,1.77255 2.862804,0.88263 3.462844,-1.41191 z m -21.145309,-0.63828 c 0.283329,-0.85582 -1.213358,-1.16842 -5.549541,-1.15907 -6.630917,0.0143 -10.15625,0.7118 -10.15625,2.00945 0,1.36545 15.245499,0.53999 15.705791,-0.85038 z m 29.801509,0.64076 c 0.78956,-1.27755 0.51357,-1.52068 -2.6186,-2.3068 -2.1998,-0.55213 -2.5762,-0.35779 -2.5762,1.33004 0,1.47066 0.58578,1.97663 2.28842,1.97663 1.25863,0 2.5665,-0.44994 2.90638,-0.99987 z m 22.9302,-2.64983 c 0,-2.16157 -2.59182,-3.32553 -4.28185,-1.92293 -1.78964,1.48527 -0.57002,3.69763 2.0384,3.69763 1.57618,0 2.24345,-0.52785 2.24345,-1.7747 z m 9.84375,-1.50655 c 0,-2.07111 -2.92447,-3.07553 -4.4661,-1.5339 -0.68925,0.68925 -0.61474,1.43265 0.24774,2.47188 1.63176,1.96614 4.21836,1.391 4.21836,-0.93798 z m 32.14463,-3.40843 c 0.34274,-1.77969 -1.7883,-2.83716 -3.53813,-1.75569 -1.70161,1.05164 -0.38753,3.96753 1.61427,3.58201 0.89799,-0.17293 1.76372,-0.99478 1.92386,-1.82632 z m -80.89463,-1.74384 c 6.1875,-0.50717 12.42599,-0.92649 13.86331,-0.9318 l 2.6133,-0.01 -0.26955,-8.67188 c -0.26416,-8.49805 -0.31712,-8.67742 -2.64213,-8.94868 -2.24537,-0.26197 -2.35301,-0.0717 -2.0078,3.54814 0.54687,5.73448 -0.63978,12.1974 -2.23957,12.1974 -1.06688,0 -1.34881,-1.65406 -1.34881,-7.91342 0,-4.35238 -0.42187,-8.17415 -0.9375,-8.49283 -0.59865,-0.36998 -0.9375,2.49026 -0.9375,7.91342 0,6.92419 -0.259734,8.49283 -1.40625,8.49283 -1.156247,0 -1.40625,-1.66667 -1.40625,-9.375 l 0,-9.375 6.5625,0 c 3.75,0 6.5625,-0.40178 6.5625,-0.9375 0,-1.50031 -9.11975,-1.08863 -20.695414,0.93422 -5.89096,1.02945 -12.08193,2.10325 -13.757711,2.38623 l -3.046875,0.51452 0,9.72314 c 0,10.7835 0.0912,10.93734 6.09375,10.27918 2.0625,-0.22615 8.8125,-0.82614 15,-1.33331 z M 75,201.5625 c 0,-4.64063 0.316406,-8.43474 0.703125,-8.43137 0.386719,0.004 0.838729,3.80025 1.004466,8.4375 C 76.906241,207.12678 76.666632,210 76.004466,210 75.364583,210 75,206.93751 75,201.5625 Z m 4.087965,-0.9375 c 0,-4.89844 0.158011,-6.90234 0.351134,-4.45313 0.193124,2.44922 0.193124,6.45704 0,8.90625 -0.193123,2.44922 -0.351134,0.44532 -0.351134,-4.45312 z m 3.217518,0.23437 c -0.377808,-8.00988 -0.269794,-9.44868 0.640961,-8.53793 0.803801,0.8038 1.285114,16.74106 0.505588,16.74106 -0.417795,0 -0.933741,-3.69141 -1.146549,-8.20313 z m 4.95603,1.01418 c -0.04071,-4.21173 -0.330086,-8.32502 -0.643065,-9.14062 -0.362658,-0.94508 -0.06026,-1.48293 0.833755,-1.48293 1.172214,0 1.330134,1.34843 0.960698,8.20312 -0.585704,10.86742 -1.060108,11.8647 -1.151388,2.42043 z m 3.829841,-2.65333 c 0.223839,-6.32985 0.653759,-8.90521 1.486771,-8.90625 0.855367,-9.4e-4 1.171875,2.404 1.171875,8.90478 0,7.50605 -0.233744,8.90625 -1.486771,8.90625 -1.275111,0 -1.441942,-1.26771 -1.171875,-8.90478 z M 121.48293,210 l 3.20457,0 0,-8.90625 c 0,-5.84981 0.35375,-8.90625 1.03078,-8.90625 0.69729,0 0.92477,2.72993 0.70313,8.43797 l -0.32766,8.43798 2.8125,-0.0193 c 1.54687,-0.0106 5.55469,-0.42577 8.90625,-0.92255 3.35156,-0.49677 15.17864,-1.5503 26.28239,-2.34117 11.10375,-0.79088 22.70531,-1.85006 25.78125,-2.35375 3.07594,-0.50368 11.87047,-0.91823 19.5434,-0.92122 l 13.95078,-0.006 -0.58109,-3.51562 c -0.3196,-1.9336 -0.58574,-7.20703 -0.59141,-11.71875 l -0.0103,-8.20294 -7.90091,0 c -12.57067,0 -31.19473,3.13609 -30.85918,5.19635 0.0803,0.49357 0.37192,4.58881 0.64785,9.10052 l 0.50168,8.20313 -3.61805,0 c -1.98992,0 -4.28536,0.25607 -5.10096,0.56905 -0.90665,0.34792 -1.47512,0.0747 -1.46284,-0.70312 0.0111,-0.69971 2.01496,-2.22589 4.45313,-3.39154 l 4.43303,-2.11936 -4.21875,0.24436 c -3.19943,0.18532 -4.21875,-0.089 -4.21875,-1.1352 0,-0.77057 1.86231,-2.09306 4.21875,-2.99588 l 4.21875,-1.61634 -4.45313,-0.051 c -5.67971,-0.0651 -5.88947,-1.89467 -0.46875,-4.08859 l 3.98438,-1.61259 -3.98438,0.49243 c -3.71556,0.45921 -3.98437,0.34093 -3.98437,-1.75306 0,-1.52548 0.67637,-2.4383 2.10937,-2.84683 1.16016,-0.33074 4.42969,-1.26912 7.26563,-2.08528 2.83594,-0.81617 8.10937,-2.22014 11.71875,-3.11995 l 6.5625,-1.63602 -0.23858,-10.45055 c -0.1491,-6.53145 0.11458,-10.45053 0.70313,-10.45053 0.57352,0 0.9417,4.03182 0.9417,10.3125 0,9.69506 0.11251,10.3125 1.87913,10.3125 1.80727,0 1.85559,-0.41229 1.26337,-10.78125 -0.51071,-8.94204 -0.39033,-10.78125 0.70568,-10.78125 1.08016,0 1.25895,1.96857 0.9792,10.78125 l -0.34224,10.78125 4.31993,0 4.31993,0 0,-11.25 c 0,-6.1875 0.17644,-11.25 0.39207,-11.25 0.21565,0 1.0594,-0.25607 1.875,-0.56905 1.30605,-0.50118 1.48293,0.90593 1.48293,11.79687 0,9.47977 0.27351,12.27314 1.17188,11.96838 0.86257,-0.29263 1.15993,-3.71551 1.1266,-12.96875 l -0.0453,-12.5712 -3.70474,-0.26753 c -2.0376,-0.14715 -6.65785,0.32941 -10.26723,1.05903 -7.31156,1.47801 -23.1788,5.48466 -23.90625,6.0366 -0.25781,0.19561 -0.67969,5.27837 -0.9375,11.29502 l -0.46875,10.93938 -4.54969,0.28969 c -5.55212,0.35351 -5.57971,-1.23489 -0.0701,-4.03854 l 3.68236,-1.87383 -4.04219,-0.29227 c -3.17472,-0.22954 -3.97789,-0.62618 -3.74255,-1.84821 0.16798,-0.87224 1.81169,-1.98018 3.74064,-2.52139 4.41744,-1.23942 4.1583,-2.81193 -0.40903,-2.48216 -2.61177,0.18858 -3.51562,-0.10744 -3.51562,-1.1514 0,-0.79909 1.51642,-1.88982 3.51562,-2.52869 5.42124,-1.73241 5.88911,-2.86865 0.89963,-2.18477 -4.0728,0.55824 -4.41525,0.44986 -4.41525,-1.39726 0,-1.2766 0.59467,-2.00762 1.64062,-2.01677 0.90235,-0.007 2.27344,-0.43921 3.04688,-0.95847 1.01693,-0.68273 0.10852,-0.87341 -3.28125,-0.68877 l -4.6875,0.25534 -0.46875,24.375 -0.46875,24.375 -2.10938,0.29958 c -1.97015,0.2798 -2.11651,-0.0605 -2.21751,-5.15625 -0.15174,-7.655 -0.22306,-8.06075 -1.49189,-8.48659 -0.80459,-0.27004 -1.21068,1.73418 -1.40625,6.94038 -0.229,6.09609 -0.54929,7.37243 -1.9156,7.63333 -1.46276,0.27932 -1.64062,-0.58847 -1.64062,-8.00471 l 0,-8.31799 3.17052,0.37014 c 1.74379,0.20358 3.45618,-0.0921 3.80533,-0.657 1.39079,-2.25036 -13.49633,-1.26138 -38.3821,2.54979 l -10.3125,1.57932 -0.29214,3.53526 c -0.16067,1.94438 -0.68802,3.29058 -1.17187,2.99154 -0.51672,-0.31935 -0.87974,2.22847 -0.87974,6.17442 0,5.7409 0.21571,6.63535 1.48293,6.14908 0.8156,-0.31298 2.92498,-0.56905 4.6875,-0.56905 z m -4.9648,-6.09375 c 0.008,-2.57813 0.18912,-3.52154 0.4046,-2.09648 0.2155,1.42505 0.20973,3.53443 -0.0127,4.6875 -0.22252,1.15306 -0.39883,-0.0128 -0.3918,-2.59102 z m 4.12065,-4.00815 c 0.0936,-3.95942 0.56573,-7.33086 1.04937,-7.49207 0.96119,-0.32039 0.36935,12.92675 -0.62695,14.03312 -0.32584,0.36185 -0.51594,-2.58162 -0.42243,-6.54105 z m 7.99542,-0.56582 c -0.19304,-5.02708 0.0692,-7.04621 0.95949,-7.38785 0.9407,-0.36098 1.24398,1.24511 1.30628,6.91772 0.10739,9.77696 -1.89247,10.1919 -2.26577,0.47013 z m 4.98092,6.01479 c -0.81654,-1.32118 -0.22976,-15.03457 0.64331,-15.03457 0.40787,0 0.74157,3.58594 0.74157,7.96875 0,7.75451 -0.23096,8.9329 -1.38488,7.06582 z m 5.01633,-1.44082 c -1.03571,-3.30661 -0.88556,-14.97286 0.17901,-13.90829 0.54519,0.54519 0.84152,4.16844 0.68472,8.37222 -0.15203,4.07609 -0.54071,6.56732 -0.86373,5.53607 z M 142.5,197.39908 c 0,-4.35238 0.31641,-8.10897 0.70312,-8.34798 0.38672,-0.239 0.70313,3.32203 0.70313,7.91342 0,4.59139 -0.31641,8.34798 -0.70313,8.34798 -0.38671,0 -0.70312,-3.56104 -0.70312,-7.91342 z m 4.16429,-0.99306 c -0.6106,-5.51036 -0.57873,-7.96891 0.10331,-7.96875 0.5932,1.4e-4 1.08582,3.17662 1.23585,7.96898 0.13722,4.38281 0.0908,7.96875 -0.10331,7.96875 -0.19404,0 -0.75018,-3.58604 -1.23585,-7.96898 z m 5.12978,6.56273 c -0.30233,-1.03125 -0.64692,-5.03906 -0.76575,-8.90625 -0.15805,-5.14344 0.0633,-6.75614 0.82435,-6.00658 0.64569,0.63591 0.93621,4.01485 0.76575,8.90625 -0.15107,4.33487 -0.52203,7.03783 -0.82435,6.00658 z m 4.02176,-6.25 c -0.12848,-5.47021 -0.57373,-8.27951 -1.36271,-8.59786 -0.64453,-0.26007 0.0937,-0.49971 1.64063,-0.53252 1.64387,-0.0349 2.3427,0.23894 1.68185,0.65897 -0.69097,0.43916 -1.25477,3.8059 -1.44981,8.65751 l -0.31914,7.9389 -0.19082,-8.125 z m 31.51633,-3.58587 c -0.23381,-6.54984 -0.01,-8.54082 1.00515,-8.92831 0.71833,-0.27429 1.35128,-0.3833 1.40656,-0.24226 0.51279,1.30845 -0.69645,17.60019 -1.30637,17.60019 -0.44243,0 -0.93984,-3.79332 -1.10534,-8.42962 z m 4.67677,-0.24226 c -0.17141,-4.76953 0.01,-9.07265 0.40221,-9.5625 0.39263,-0.48984 0.71386,3.4125 0.71386,8.67188 0,5.25938 -0.18099,9.5625 -0.40222,9.5625 -0.22122,0 -0.54245,-3.90234 -0.71385,-8.67188 z m 4.69236,-1.15602 c -0.18704,-6.25299 0.0539,-9.86283 0.65811,-9.86158 1.28422,0.003 1.84579,18.36 0.58547,19.13891 -0.61016,0.37711 -1.05378,-2.9324 -1.24358,-9.27733 z m 5.47815,9.12477 c -0.87227,-1.4223 -0.54906,-19.92187 0.34807,-19.92187 0.53317,0 0.90999,4.2703 0.90999,10.3125 0,9.69432 -0.21216,11.31479 -1.25806,9.60937 z m 4.39603,-8.76387 c -0.0326,-7.05748 -0.37789,-9.67854 -1.3565,-10.29814 -0.98998,-0.62681 -0.79412,-0.83468 0.79665,-0.84551 2.06054,-0.0141 2.10938,0.22445 2.10938,10.29815 0,5.67187 -0.33879,10.3125 -0.75288,10.3125 -0.41407,0 -0.77256,-4.26015 -0.79665,-9.467 z m 4.97092,3.76744 C 210.03494,181.4022 210.52655,180 217.10793,180 l 3.20457,0 -0.0103,7.26562 c -0.0135,9.4839 -0.84031,14.29688 -2.4561,14.29688 -1.00866,0 -1.28359,-2.20883 -1.28359,-10.3125 0,-8.54167 -0.24148,-10.3125 -1.40625,-10.3125 -1.15286,0 -1.40884,1.64701 -1.4206,9.14062 -0.0171,10.89166 -1.30093,14.28397 -2.18926,5.78482 z m -23.5573,-28.56792 c -0.53971,-7.19872 -0.41739,-9.26049 0.58633,-9.88295 1.02638,-0.6365 1.31986,0.93538 1.53848,8.23991 0.36302,12.12908 -1.24539,13.3728 -2.12481,1.64304 z m 4.34845,-2.06065 c -0.0825,-5.28515 0.16637,-9.61032 0.55308,-9.61148 0.38672,-9.4e-4 0.58766,3.05743 0.44653,6.79688 -0.44069,11.6766 -0.84354,12.8109 -0.99961,2.8146 z m 4.37428,-0.89008 c -0.20552,-5.43532 0.0329,-9.4544 0.58386,-9.84019 0.5122,-0.35868 1.00681,-0.56962 1.09914,-0.46875 0.0923,0.10087 0.31548,4.36682 0.4959,9.47989 0.22726,6.44066 -0.004,9.40718 -0.75174,9.6568 -0.75079,0.25053 -1.1856,-2.43892 -1.42716,-8.82775 z m 15.16318,0.30415 c 0,-4.31836 -0.26367,-9.16992 -0.58594,-10.78125 -0.48951,-2.44757 -0.29666,-2.92999 1.17188,-2.93153 1.63383,-0.002 1.73728,0.75873 1.46668,10.78125 -0.33322,12.34165 -2.05262,14.79729 -2.05262,2.93153 z M 65.993497,187.65399 c -0.586638,-18.52355 -0.501224,-20.52745 0.897845,-21.06433 1.285755,-0.49338 1.546158,-2.08683 1.546158,-9.46115 0,-10.31673 1.374407,-21.77674 3.320418,-27.68614 0.751895,-2.28326 1.367082,-4.28717 1.367082,-4.45313 0,-0.16595 -4.354593,-0.30174 -9.676873,-0.30174 l -9.676873,0 -1.257824,9.14062 c -3.770811,27.40255 1.071339,57.53467 11.515826,71.66159 1.071594,1.44941 2.097799,2.63529 2.280455,2.63529 0.182655,0 0.04036,-9.21195 -0.316213,-20.47101 z m 204.944003,3.98664 c 0,-9.02164 -0.27568,-11.70463 -1.17188,-11.40475 -0.85178,0.28503 -1.17187,3.50704 -1.17187,11.79598 0,8.49758 0.29865,11.40406 1.17187,11.40474 0.87547,6.7e-4 1.17188,-2.98299 1.17188,-11.79597 z m 47.60984,1.24999 c 0.20308,-7.6914 -0.0189,-10.09373 -0.9375,-10.14402 -0.66198,-0.0362 -0.35984,-0.42845 0.67141,-0.8716 1.33712,-0.57458 0.26136,-0.82517 -3.75,-0.87352 l -5.625,-0.0678 0.29286,10.31442 c 0.24361,8.57971 0.0612,10.31441 -1.08438,10.31441 -1.06646,0 -1.52584,-1.98195 -2.03575,-8.78312 -0.36217,-4.83072 -0.3842,-9.64732 -0.0489,-10.70356 0.48403,-1.52504 0.26381,-1.83013 -1.06963,-1.48183 -1.49053,0.38932 -1.67913,1.64413 -1.67913,11.17115 l 0,10.73256 4.45312,9.4e-4 4.45313,9.4e-4 0,-10.3125 c 0,-6.25001 0.36932,-10.3125 0.9375,-10.3125 0.57097,0 0.9375,4.24048 0.9375,10.84645 0,10.71194 0.0261,10.84274 2.10937,10.54687 2.01863,-0.28668 2.12082,-0.73314 2.37547,-10.3777 z m 4.69519,-0.69953 c -0.2002,-8.22369 -0.58874,-11.24737 -1.44566,-11.25 -0.87259,-0.003 -1.17187,2.86949 -1.17187,11.24641 0,9.51127 0.22343,11.25 1.44565,11.25 1.23741,0 1.40622,-1.62002 1.17188,-11.24641 z m -89.57066,9.68802 C 232.83482,201.54135 232.5,198.48218 232.5,191.17188 c 0,-9.60938 0.11451,-10.23438 1.875,-10.23438 1.76631,0 1.875,0.625 1.875,10.78125 0,8.95834 0.23777,10.78125 1.40625,10.78125 1.16848,0 1.40625,-1.82291 1.40625,-10.78125 0,-8.35508 0.28107,-10.78125 1.249,-10.78125 0.91919,0 1.17113,1.29969 0.95409,4.92187 -0.16221,2.70704 -0.43478,7.5586 -0.6057,10.78125 l -0.31078,5.85938 5.21607,0.002 5.21607,0.002 -0.29286,-10.31441 c -0.25132,-8.8513 -0.0851,-10.31434 1.17188,-10.31434 1.2392,0 1.46473,1.58782 1.46473,10.3125 0,8.54167 0.24148,10.3125 1.40625,10.3125 1.16477,0 1.40625,-1.77083 1.40625,-10.3125 0,-9.79148 0.0977,-10.3125 1.93348,-10.3125 1.85357,0 1.92139,0.42634 1.64063,10.31441 -0.25258,8.89547 -0.0892,10.31415 1.18692,10.3125 1.26548,-0.002 1.46914,-1.54559 1.40625,-10.66128 l -0.0735,-10.65937 -6.93833,-0.59063 C 251.27685,180.26578 243.99951,180 238.92105,180 l -9.23355,0 0,11.25 0,11.25 2.57812,-0.074 c 1.41797,-0.0407 2.05079,-0.2868 1.40625,-0.54687 z m 11.01563,-10.55099 c 0,-8.71296 0.23217,-10.39062 1.43797,-10.39062 1.21905,0 1.39745,1.52261 1.17187,10.00186 -0.18546,6.97104 -0.6212,10.11966 -1.43797,10.39062 -0.8904,0.29539 -1.17187,-2.10701 -1.17187,-10.00186 z m 36.5625,5.07813 c 0,-3.4375 0.40866,-6.09375 0.9375,-6.09375 0.52884,0 0.9375,2.65625 0.9375,6.09375 0,5.46875 0.19231,6.09375 1.875,6.09375 1.68097,0 1.86922,-0.60638 1.81912,-5.85938 -0.0308,-3.22265 -0.38574,-7.86328 -0.78888,-10.3125 l -0.73299,-4.45312 2.89826,0.10875 c 1.59403,0.0598 2.15996,0.30169 1.25761,0.5375 -1.43018,0.37374 -1.64062,1.68254 -1.64062,10.20374 l 0,9.77501 2.41858,0 2.41857,0 -0.25117,-9.60938 c -0.13814,-5.28515 -0.42789,-10.13671 -0.64388,-10.78125 -0.28048,-0.83699 -3.17296,-1.17187 -10.12173,-1.17187 l -9.72904,0 0.14799,10.78125 0.148,10.78125 4.52509,0 4.52509,0 0,-6.09375 z m -6.5625,-4.53125 c 0,-5.5 0.35062,-10 0.77914,-10 0.84355,0 0.59463,18.62622 -0.26034,19.48119 -0.28533,0.28535 -0.5188,-3.98119 -0.5188,-9.48119 z m 5.75418,-5.07869 c 0.14876,-1.41828 -0.0553,-3.10578 -0.45342,-3.75 -0.46071,-0.74543 -0.1925,-1.17131 0.73766,-1.17131 1.08018,0 1.46158,0.97857 1.46158,3.75 0,2.0625 -0.45367,3.75 -1.00816,3.75 -0.55448,0 -0.88643,-1.16041 -0.73766,-2.57869 z m 16.4193,9.37556 c -0.32871,-3.48046 -0.60065,-8.33203 -0.60431,-10.78125 -0.005,-2.93394 -0.40646,-4.45312 -1.17855,-4.45312 -0.86956,0 -1.17187,2.78125 -1.17187,10.78125 0,9.95633 0.1359,10.78125 1.77619,10.78125 1.62686,0 1.72594,-0.53204 1.17854,-6.32813 z M 130.32007,184.52 c 7.89009,-1.4584 18.0041,-2.63756 24.1237,-2.8125 l 10.53753,-0.30125 0.009,-11.87645 c 0.005,-6.53205 0.26543,-12.54377 0.57841,-13.35937 1.0306,-2.68571 -9.88172,-1.80531 -28.13381,2.26983 -9.23095,2.06098 -17.95996,3.74724 -19.39782,3.74724 -1.43787,0 -2.83596,0.35867 -3.10689,0.79704 -0.27093,0.43837 -0.21043,7.29384 0.13446,15.23438 0.34488,7.94053 0.86146,13.1717 1.14796,11.62483 l 0.52092,-2.8125 13.58617,-2.51125 z M 116.25,181.40625 c 0,-2.49218 0.17162,-4.35547 0.38138,-4.14063 0.72499,0.74256 0.96687,7.32363 0.2939,7.9966 -0.3714,0.3714 -0.67528,-1.36379 -0.67528,-3.85597 z m 3.8159,-2.69291 c -0.058,-6.50201 -0.23597,-7.23928 -1.49481,-6.19453 -2.02573,1.68121 -2.47232,0.78833 -1.77786,-3.55454 0.48214,-3.01515 1.06114,-3.87316 2.84359,-4.21391 2.2372,-0.42767 2.23815,-0.4239 2.17228,8.58277 -0.0362,4.95584 -0.42845,9.85437 -0.8716,10.88562 -0.54525,1.26886 -0.82702,-0.51089 -0.8716,-5.50541 z m 4.63595,-4.10397 c -0.009,-6.41581 0.35286,-10.54687 0.92315,-10.54687 1.21999,0 1.21999,17.7997 0,19.6875 -0.6166,0.95412 -0.91341,-1.98473 -0.92315,-9.14063 z m 4.66283,1.875 c -0.006,-3.48046 -0.26168,-7.84772 -0.5689,-9.70501 -0.42839,-2.58979 -0.20746,-3.51163 0.94782,-3.95495 1.32711,-0.50926 1.5064,0.64581 1.5064,9.70501 0,6.23039 -0.36948,10.28308 -0.9375,10.28308 -0.53138,0 -0.94197,-2.74125 -0.94782,-6.32813 z m 4.6332,3.28125 c -0.0355,-1.67578 -0.14102,-6.31656 -0.23438,-10.31285 -0.0934,-3.99628 0.14666,-7.26581 0.53337,-7.26563 0.38672,2e-4 0.70313,4.64098 0.70313,10.31286 0,5.67187 -0.21094,10.3125 -0.46875,10.3125 -0.25781,0 -0.49783,-1.37109 -0.53337,-3.04688 z m 4.2425,-8.20252 c 0.0272,-6.86797 0.3863,-10.3121 1.07518,-10.3125 0.5741,-3.3e-4 0.9647,1.35508 0.87786,3.04627 -0.0861,1.67579 -0.23508,6.31641 -0.33118,10.3125 -0.26973,11.21516 -1.66796,8.5889 -1.62186,-3.04627 z M 142.5,170.68033 c 0,-5.82684 0.40492,-10.50743 0.9375,-10.83658 0.60435,-0.37351 0.9375,3.27152 0.9375,10.25717 0,6.59939 -0.36657,10.83658 -0.9375,10.83658 -0.56787,0 -0.9375,-4.04406 -0.9375,-10.25717 z m 4.66098,6.74154 c -0.0146,-1.93359 -0.14962,-6.80716 -0.30007,-10.83016 -0.15045,-4.02301 0.0725,-7.52837 0.49527,-7.78971 0.42285,-0.26134 0.76882,4.61224 0.76882,10.83017 0,6.21793 -0.21094,11.30533 -0.46875,11.30533 -0.25781,0 -0.48068,-1.58203 -0.49527,-3.51563 z m 4.35582,2.757 c -1.01108,-1.63595 -0.80015,-20.95802 0.24015,-21.99832 0.7824,-0.7824 1.05555,2.02548 1.05555,10.8507 0,11.27398 -0.19274,12.93225 -1.2957,11.14762 z m 3.95729,-2.28825 c -0.083,-1.16015 -0.25109,-6.22265 -0.37355,-11.25 -0.17807,-7.31114 0.0397,-9.14062 1.08841,-9.14062 1.05023,0 1.31105,2.23807 1.31105,11.25 0,6.875 -0.36458,11.25 -0.9375,11.25 -0.51563,0 -1.0054,-0.94922 -1.08841,-2.10938 z m 3.90091,-9.54063 c 0,-11.22204 0.0913,-11.78749 1.90386,-11.78749 1.82409,0 1.89283,0.48063 1.64062,11.47296 -0.23077,10.05849 -0.4655,11.51174 -1.90386,11.78749 -1.49219,0.28607 -1.64062,-0.75196 -1.64062,-11.47296 z m -77.481163,17.14756 5.487587,-1.09215 -0.331337,-9.85709 c -0.213084,-6.33914 0.02012,-9.97492 0.65341,-10.18721 0.651147,-0.21828 0.946226,3.00998 0.871036,9.5294 -0.09671,8.38502 0.106532,9.8595 1.359003,9.8595 1.245113,0 1.472714,-1.52131 1.472714,-9.84375 0,-5.92793 -0.372936,-9.84946 -0.9375,-9.8581 -1.049836,-0.016 1.474372,-1.82376 2.578125,-1.8463 0.386719,-0.008 0.703125,4.62627 0.703125,10.29815 0,8.54167 0.241481,10.3125 1.40625,10.3125 1.164769,0 1.40625,-1.77083 1.40625,-10.3125 l 0,-10.3125 5.39063,-0.0143 c 2.96484,-0.007 6.02343,-0.42331 6.79687,-0.92315 0.95933,-0.61997 -1.5732,-0.90967 -7.96875,-0.91156 -8.879908,-0.003 -9.894847,0.20881 -19.21875,4.00361 -7.25991,2.95476 -9.823243,4.4282 -9.765625,5.61341 0.04296,0.88387 0.148438,5.24218 0.234375,9.68513 0.152576,7.88816 0.205845,8.06483 2.265625,7.51359 1.160156,-0.31047 4.578789,-1.05596 7.596962,-1.65663 z m -7.034462,-6.84847 c -0.07734,-3.89762 -0.182812,-7.57877 -0.234375,-8.18033 -0.05156,-0.60156 0.433594,-1.26953 1.078125,-1.48438 0.8764,-0.29213 1.171875,1.62435 1.171875,7.60093 0,10.12011 -1.818802,11.98237 -2.015625,2.06378 z M 82.5,175.9375 c 0,-4.98437 -0.03164,-9.36836 -0.07031,-9.74219 -0.03867,-0.37383 0.277735,-0.79582 0.703125,-0.93777 0.856799,-0.28589 0.766204,18.34344 -0.09338,19.20303 C 82.742742,184.75726 82.5,180.92187 82.5,175.9375 Z m -3.41723,-0.15625 c -0.0028,-4.64063 0.155674,-6.65726 0.35229,-4.48141 0.196617,2.17584 0.198954,5.97272 0.0052,8.4375 -0.193722,2.46477 -0.354589,0.68453 -0.357447,-3.95609 z m 26.85473,6.46969 3.28125,-0.54093 -0.29786,-9.34939 c -0.28668,-8.99841 -0.37466,-9.33845 -2.34375,-9.05813 -1.66414,0.23691 -1.98531,0.80532 -1.72124,3.04627 0.61614,5.22873 -0.843,14.58874 -2.27427,14.58874 -1.03029,0 -1.34655,-1.64417 -1.39753,-7.26563 -0.10638,-11.73065 -1.561591,-12.43123 -1.943219,-0.93552 -0.373519,11.25142 -0.7338,10.73952 6.696619,9.51459 z m 126.62365,-19.86558 -0.15791,-11.44786 7.78276,-9.4e-4 7.78275,-9.4e-4 -0.31084,11.72007 c -0.27032,10.19172 -0.11757,11.71931 1.17188,11.71931 1.27287,0 1.48271,-1.6585 1.48271,-11.71875 l 0,-11.71875 5.1711,0 5.17111,0 -0.62648,11.71875 c -0.55455,10.37327 -0.45445,11.71875 0.87191,11.71875 1.28418,0 1.53916,-1.79705 1.7835,-12.57012 l 0.28511,-12.57013 -14.0625,-0.65415 c -7.73437,-0.35979 -15.00473,-0.50401 -16.15635,-0.32051 -2.02027,0.32193 -2.10765,0.76794 -2.48641,12.69101 -0.21591,6.79653 -0.14378,12.60611 0.16026,12.91015 1.73196,1.73196 2.27908,-1.20556 2.1374,-11.47589 z m 9.31385,11.01916 c 0,0.53376 0.63281,0.97048 1.40625,0.97048 1.17187,0 1.40625,-1.875 1.40625,-11.25 0,-6.875 -0.36458,-11.25 -0.9375,-11.25 -0.51563,0 -0.9375,0.44677 -0.9375,0.99283 0,0.54606 -0.42188,0.7321 -0.9375,0.41342 -0.60113,-0.37151 -0.9375,2.78432 -0.9375,8.7956 0,5.57713 -0.40153,9.62315 -0.99117,9.98757 -0.67708,0.41846 -0.93607,-2.59637 -0.81731,-9.51399 0.1038,-6.0456 -0.2022,-10.25191 -0.75931,-10.43761 -1.34283,-0.44761 -2.11971,4.46171 -2.11971,13.395 0,8.10073 0.69733,9.4606 3.98437,7.77001 1.04935,-0.5397 1.64063,-0.49403 1.64063,0.12669 z M 255.9375,163.125 c 0,-11.99851 -1.21449,-15.01386 -2.21019,-5.48748 -1.08095,10.34188 -0.77375,16.73748 0.80394,16.73748 1.17187,0 1.40625,-1.875 1.40625,-11.25 z m 15,-0.46875 0,-11.71875 11.95312,-9.4e-4 11.95313,-9.4e-4 -0.31084,11.72007 c -0.28106,10.59685 -0.15576,11.71931 1.30827,11.71931 1.47445,0 1.57389,-1.04702 1.11301,-11.71875 l -0.5061,-11.71875 3.79344,0 3.79342,0 -0.5537,11.71875 c -0.53969,11.42199 -0.50432,11.71875 1.39658,11.71875 1.9036,0 1.93453,-0.26935 1.29225,-11.25 l -0.65803,-11.25 7.55647,0 7.55648,0 0,11.25 c 0,9.375 0.23437,11.25 1.40625,11.25 1.17434,0 1.40625,-1.91579 1.40625,-11.61712 0,-11.2737 -0.0623,-11.63195 -2.10938,-12.11893 -1.16015,-0.276 -12.02343,-0.76111 -24.14062,-1.07802 -12.11719,-0.31691 -23.40234,-0.78876 -25.07813,-1.04856 l -3.04687,-0.47234 0,13.16749 c 0,8.15332 0.357,13.16748 0.9375,13.16748 0.575,0 0.9375,-4.53125 0.9375,-11.71875 z m 5.46459,7.26562 0.97993,-4.45312 -0.17538,4.21875 c -0.16579,3.9879 -0.0295,4.23544 2.48934,4.52376 l 2.66473,0.30499 -0.60085,-7.33624 c -1.02864,-12.55933 -1.44054,-14.36751 -3.27291,-14.36751 -1.25829,0 -1.89004,1.19275 -2.60693,4.92187 l -0.94619,4.92188 -0.12317,-5.39063 c -0.0677,-2.96484 -0.54504,-5.39062 -1.06066,-5.39062 -0.51563,0 -0.95935,0.73828 -0.98606,1.64062 -0.54287,18.34206 -0.40837,20.85938 1.11456,20.85938 1.07903,0 1.83862,-1.34037 2.52359,-4.45313 z m 0.23443,-9.21874 c 0.045,-1.09214 0.26713,-1.31428 0.5664,-0.56641 0.27081,0.67675 0.23751,1.48535 -0.074,1.79688 -0.31153,0.31152 -0.5331,-0.2422 -0.4924,-1.23047 z m 10.91721,4.36882 c -0.10355,-5.11667 -0.5031,-8.80808 -0.8879,-8.20312 -0.406,0.6383 -0.70564,0.0179 -0.71398,-1.47821 -0.0101,-1.82417 -0.49413,-2.57865 -1.65498,-2.57996 -1.48437,-0.002 -1.61289,1.02517 -1.34949,10.78125 0.28831,10.67866 0.31294,10.78309 2.54288,10.78309 2.23869,0 2.25065,-0.0539 2.06347,-9.30305 z m 4.93347,0.16242 c -0.0148,-10.59861 -0.55629,-13.4419 -2.42333,-12.72544 -1.02044,0.39157 -1.31387,2.88954 -1.31387,11.18512 0,10.05595 0.10972,10.68095 1.875,10.68095 1.74767,0 1.87413,-0.62074 1.8622,-9.14063 z m 26.2628,1.28907 c 0,-10.66708 -0.6822,-13.71094 -3.07293,-13.71094 -1.83108,0 -1.87918,0.38222 -1.30688,10.38469 0.45862,8.01561 0.3309,10.29739 -0.55989,10.00206 -0.76651,-0.25412 -1.23091,-3.03308 -1.38293,-8.2753 -0.26042,-8.98066 -0.81174,-12.11145 -2.13273,-12.11145 -0.54787,0 -0.91964,4.35834 -0.91964,10.78125 l 0,10.78125 4.6875,0 4.6875,0 0,-7.85156 z M 80.762238,159.18938 c 6.166526,-2.68173 7.734908,-2.9785 14.862762,-2.81232 4.38281,0.10219 9.76172,0.4225 11.95313,0.71181 l 3.98437,0.52602 0,-12.1141 c 0,-6.66275 0.26962,-14.08116 0.59915,-16.48535 l 0.59914,-4.37124 -17.218431,0.25602 -17.218434,0.25603 -2.069087,9.33118 c -1.968485,8.87748 -3.924802,27.70007 -2.878996,27.70007 0.270811,0 3.594688,-1.34915 7.386396,-2.99812 z m 54.311562,-4.99272 c 4.18271,-1.25194 11.09142,-2.76399 15.35271,-3.36012 l 7.74778,-1.08385 0.60035,-8.45787 c 0.3302,-4.65182 0.60036,-10.44042 0.60036,-12.86353 l 0,-4.40566 -20.85938,0.0966 -20.85937,0.0966 -0.58824,9.84375 c -0.32354,5.41406 -0.63995,12.95683 -0.70313,16.76172 l -0.11488,6.91796 5.60944,-0.63463 c 3.08519,-0.34905 9.03166,-1.65895 13.21436,-2.91089 z m 59.50256,-5.49023 c 4.61581,-1.27361 9.55255,-2.5663 10.97051,-2.87264 l 2.57813,-0.55701 0,-10.76339 0,-10.76339 -21.43192,0 -21.43191,0 -0.59119,4.92187 c -0.32515,2.70704 -0.59485,8.3532 -0.59933,12.54704 l -0.008,7.62516 6.32812,0.60701 c 10.25742,0.98394 13.35938,1.59255 13.35938,2.62111 0,0.64758 0.40442,0.63425 1.21699,-0.0401 0.66933,-0.55551 4.99355,-2.05205 9.60937,-3.32565 z m 96.98614,-7.87283 c 0,-5.9131 -1.93618,-8.6461 -6.1253,-8.6461 -3.94249,0 -6.08191,2.81896 -6.76956,8.91978 l -0.47398,4.20522 6.68442,0 6.68442,0 0,-4.4789 z m -8.4375,-0.2086 c 0,-1.04167 0.625,-1.875 1.40625,-1.875 0.78125,0 1.40625,0.83333 1.40625,1.875 0,1.04167 -0.625,1.875 -1.40625,1.875 -0.78125,0 -1.40625,-0.83333 -1.40625,-1.875 z m -26.25,-5.97656 0,-9.72656 -2.92969,-0.58594 C 252.33398,124.01367 242.41992,123.75 231.91406,123.75 l -19.10156,0 0,9.69003 0,9.69004 17.54491,0.19862 c 9.64971,0.10925 17.73564,0.38936 17.96875,0.62248 0.23311,0.23311 2.25196,0.42383 4.48634,0.42383 l 4.0625,0 0,-9.72656 z m 74.66924,-13.36951 4.82549,-0.57977 -2.16274,-6.35872 C 331.83892,107.37801 323.09416,89.790588 320.91875,87.615172 319.89096,86.587388 317.03493,86.25 309.36241,86.25 l -10.19117,0 4.16438,8.972409 c 2.29041,4.934821 4.17084,9.680921 4.17873,10.546871 0.0256,2.80633 1.40969,3.8906 6.08028,4.76316 5.35764,1.00092 7.03037,2.85004 7.03037,7.77174 0,3.40529 0.14124,3.57045 3.04687,3.56267 1.67579,-0.005 5.21835,-0.26904 7.87237,-0.58792 z M 70.990264,120.38007 c 2.57342,-0.51469 3.020393,-1.25153 5.829042,-9.60937 1.673047,-4.97858 4.662952,-12.532419 6.644234,-16.786325 L 87.065873,86.25 84.548561,86.146227 c -1.384521,-0.05707 -3.499869,-0.02251 -4.700774,0.0768 -1.936259,0.16013 -2.0652,-0.04041 -1.13889,-1.771228 0.853145,-1.594116 1.940507,-1.951975 5.933463,-1.952754 l 4.88889,-9.51e-4 2.737246,-4.920922 c 3.755185,-6.750937 11.245674,-17.830019 13.089134,-19.359947 2.5996,-2.157479 1.69771,-2.904725 -3.50589,-2.904725 l -5.023253,0 -10.553269,11.484375 C 71.114569,83.295128 63.693428,94.904719 57.774026,111.384 c -3.5006,9.74546 -3.58065,9.5535 3.983786,9.5535 3.544922,0 7.699526,-0.25085 9.232452,-0.55743 z m 41.909436,-2.48944 c 0.23949,-1.16016 0.69744,-4.21875 1.01767,-6.79688 0.32023,-2.57812 1.81983,-9.02051 3.33244,-14.316412 C 118.76242,91.481434 120,86.946277 120,86.699212 120,86.452146 113.93735,86.25 106.52744,86.25 l -13.472552,0 -3.336204,7.734375 c -1.834911,4.253906 -4.450726,10.898435 -5.812922,14.765625 -1.362195,3.86719 -2.859522,7.98047 -3.327391,9.14063 L 79.727698,120 l 16.368293,0 c 16.220499,0 16.372219,-0.019 16.803709,-2.10937 z m 46.79387,-7.96875 c 0.33023,-5.02735 0.87586,-12.391711 1.21253,-16.365254 l 0.6121,-7.224625 -17.48061,-0.275375 -17.4806,-0.275376 -1.80454,5.625 c -0.99249,3.09375 -2.71121,9.84375 -3.81937,15 -1.10817,5.15625 -2.22175,10.11328 -2.47464,11.01563 -0.42783,1.52657 0.96849,1.64062 20.08746,1.64062 l 20.54725,0 0.60042,-9.14062 z m 47.90227,-2.57813 c -0.26827,-6.1875 -0.71118,-13.464844 -0.98426,-16.171875 l -0.4965,-4.921875 -19.48542,0 -19.48541,0 -0.57004,6.328125 c -1.30547,14.492155 -1.80318,23.598005 -1.35385,24.769255 0.37824,0.98597 4.90586,1.24637 21.67069,1.24637 l 21.19253,0 -0.48774,-11.25 z m 46.81759,6.79688 c -0.67639,-6.68203 -3.0406,-20.07368 -4.30322,-24.375005 -0.90005,-3.066123 -1.4026,-3.520934 -3.93048,-3.557151 -7.52631,-0.107826 -33.78563,0.147426 -33.96839,0.330188 -0.1135,0.113496 0.0396,7.477794 0.34031,16.365098 l 0.54667,16.15874 20.90667,0 20.90667,0 -0.49823,-4.92187 z M 318.09356,83.203125 C 312.0902,75.262929 303.89542,65.773837 298.44146,60.447058 l -6.74141,-6.584191 -7.3344,0.35829 c -4.03392,0.19706 -7.51458,0.527628 -7.73481,0.734596 -0.22021,0.206968 0.65761,1.532061 1.95074,2.944651 3.84855,4.20412 14.90716,18.998844 16.00957,21.418361 0.56228,1.234054 1.48194,2.271445 2.04371,2.305313 1.44404,0.08706 21.57263,2.501092 21.99555,2.637941 0.19205,0.06214 -0.0495,-0.414363 -0.53685,-1.058894 z m -194.10561,-6.09375 c 1.558,-4.294511 7.53812,-15.335337 10.66347,-19.6875 l 1.51477,-2.109375 -8.78622,0.01032 c -14.8841,0.01747 -14.56733,-0.127128 -20.98939,9.581713 -3.08513,4.664103 -5.77495,8.949094 -5.97737,9.522203 -0.20244,0.573108 -1.151657,2.161829 -2.109379,3.530488 -0.957731,1.368656 -1.741331,2.73975 -1.741331,3.046871 0,0.307122 5.80723,0.558403 12.90495,0.558403 l 12.90495,0 1.61555,-4.453125 z m 39.13705,4.134399 c 0,-1.555692 3.1771,-16.943023 4.27627,-20.710806 0.7418,-2.542806 1.34873,-4.75765 1.34873,-4.921875 0,-0.484713 -9.16834,-0.333622 -18.91226,0.311667 l -9.06851,0.600559 -6.1018,11.994032 c -5.7864,11.374064 -5.99608,12.01161 -4.05649,12.334093 3.07596,0.51142 32.51406,0.866635 32.51406,0.39233 z m 42.1069,-4.100586 c -0.0443,-2.467816 -0.57167,-8.283813 -1.17187,-12.924438 L 202.96875,55.78125 191.25,55.50158 c -6.44531,-0.15382 -13.02296,-0.04178 -14.617,0.248974 -3.14202,0.573106 -2.60634,-1.112091 -7.37109,23.188871 -0.17208,0.877621 0.1697,1.775964 0.75949,1.996319 0.58979,0.220355 8.77157,0.466736 18.18173,0.547513 l 17.10937,0.146868 -0.0806,-4.486937 z m 41.3306,3.466196 c 0,-1.419957 -10.28633,-21.756336 -11.96556,-23.656259 -1.23921,-1.402091 -3.20088,-1.640625 -13.49224,-1.640625 -10.84673,0 -12.04143,0.162871 -12.03441,1.640625 0.005,0.902344 0.61524,6.24134 1.35769,11.864435 0.74244,5.623096 1.32179,10.474658 1.28744,10.78125 -0.0343,0.306592 -0.0125,0.873846 0.0486,1.260565 0.17569,1.112698 34.79852,0.86397 34.79852,-0.249991 z m 42.16215,0.249991 c -0.0299,-0.827901 -5.68498,-8.504507 -13.5684,-18.418525 l -5.625,-7.073883 -14.23915,-0.02723 -14.23916,-0.02723 6.27041,12.574909 c 5.72971,11.490582 6.51292,12.609406 9.0829,12.974965 5.06339,0.720228 32.34439,0.717696 32.3184,-0.003 z M 140.82901,45.240174 c 4.80913,-6.450309 7.83416,-9.996871 15.17897,-17.795892 3.04657,-3.23498 5.2197,-5.881782 4.82918,-5.881782 -0.39052,0 -2.25036,0.680981 -4.13298,1.513291 -19.43434,8.591992 -26.83674,13.213568 -35.73466,22.310421 l -5.12422,5.238788 10.48448,0 10.48448,0 4.01475,-5.384826 z M 172.9088,42.65625 c 3.99703,-9.853293 9.51553,-20.774195 12.51027,-24.757321 l 2.40204,-3.194822 -5.41335,0.636233 c -4.96385,0.583404 -6.00859,1.154159 -12.58242,6.873957 -7.89287,6.867475 -17.03487,16.701331 -22.16598,23.843451 l -3.31942,4.620392 12.76323,-0.260945 12.76322,-0.260945 3.04241,-7.5 z m 27.89545,4.6875 C 200.64502,45.796875 199.27393,38.108963 197.75737,30.259499 196.24082,22.410037 195,15.713849 195,15.379083 c 0,-1.62774 -3.23512,2.41573 -6.25897,7.822867 -4.16484,7.447438 -11.55353,24.1056 -11.55353,26.048009 0,1.221973 1.74643,1.392724 11.95312,1.168676 l 11.95313,-0.262385 -0.2895,-2.8125 z m 28.88325,2.440634 c 0,-1.703076 -21.35194,-28.092554 -26.24798,-32.440634 l -2.11129,-1.875 0.54314,2.8125 c 0.29873,1.546875 1.20034,6.841047 2.00358,11.764827 0.80324,4.923781 1.87715,10.405371 2.38649,12.181312 0.50933,1.77594 0.92606,4.391924 0.92606,5.813297 l 0,2.584314 11.25,0 c 6.1875,0 11.25,-0.378277 11.25,-0.840616 z m 29.85003,-3.788846 c -4.69399,-5.340828 -19.96656,-19.155797 -28.17458,-25.48563 -3.09088,-2.383613 -7.2798,-4.831194 -9.3087,-5.439069 -4.66864,-1.398758 -12.99175,-2.408454 -12.99175,-1.576058 0,0.347023 4.87508,6.417505 10.83352,13.48996 5.95845,7.072455 12.39204,15.276034 14.29688,18.230175 l 3.46335,5.371167 12.97503,0.01946 12.97504,0.01946 -4.06879,-4.629462 z m 25.42984,3.18389 c -3.60274,-4.341038 -35.81606,-23.742424 -35.4819,-21.369989 0.0608,0.431371 5.30952,5.741342 11.66391,11.799936 l 11.55344,11.015625 6.73213,0 c 5.95921,0 6.5944,-0.165967 5.53242,-1.445572 z M 228.89752,311.31972 c -6.20523,-1.59587 -5.62934,-2.88031 1.3056,-2.91195 8.1742,-0.0373 20.56557,-1.85182 37.45313,-5.48445 7.21875,-1.5528 17.13281,-3.0479 22.03125,-3.32244 l 8.90625,-0.49916 -7.03125,1.29286 c -7.29953,1.34219 -15.4243,3.45949 -31.40625,8.18437 -10.03372,2.96635 -25.20819,4.29685 -31.25873,2.74077 z m 90.57899,-16.87068 c -4.81054,-3.15858 -7.84823,-5.72801 -7.37488,-6.23805 0.44269,-0.47698 3.22513,-5.50787 6.18319,-11.17974 2.95807,-5.67188 6.9989,-13.05469 8.97962,-16.40625 4.91756,-8.32095 21.88675,-44.48041 25.73751,-54.84375 3.47567,-9.35392 5.31257,-16.08708 7.42879,-27.23023 l 1.41624,-7.45727 -0.41053,15.46875 c -0.27094,10.20902 -1.034,18.49708 -2.24415,24.375 -5.08845,24.7156 -17.18009,49.89753 -33.76206,70.3125 -3.1411,3.86719 -5.71821,7.30203 -5.72691,7.63298 -0.008,0.33095 1.93649,2.77318 4.32264,5.42715 2.38616,2.65399 4.17913,4.97939 3.98437,5.16757 -0.19474,0.18818 -4.03498,-2.07472 -8.53383,-5.02866 z M 96.09375,287.84673 c -5.99329,-1.01655 -11.47625,-3.02531 -17.100511,-6.265 -8.861735,-5.10453 -20.506024,-13.41456 -25.652233,-18.30688 -2.889008,-2.74648 -3.701424,-3.69058 -1.805368,-2.098 16.400918,13.77584 27.657716,18.551 52.995612,22.48088 4.64063,0.71975 10.75781,1.34586 13.59375,1.39135 2.83594,0.0455 5.98466,0.40659 6.99717,0.80246 1.47483,0.57663 1.08863,0.84006 -1.94212,1.3247 -6.8607,1.09707 -22.31578,1.47964 -27.0863,0.67049 z m -51.957237,-82.1436 c 0.04498,-1.09214 0.267132,-1.31428 0.566406,-0.56641 0.270817,0.67675 0.23751,1.48535 -0.07402,1.79688 -0.311524,0.31152 -0.533101,-0.2422 -0.492394,-1.23047 z M 42.8142,201.37178 c -1.410515,-5.66603 -2.521354,-23.02654 -1.697438,-26.52803 0.758235,-3.22236 0.895643,-2.45616 0.976565,5.44542 0.0518,5.05748 0.55362,12.15663 1.115167,15.77588 0.979482,6.31292 0.721281,9.78799 -0.394294,5.30673 z"
     style="fill:#000000" />
</svg>
